<?xml version="1.0" encoding="utf-8"?>
<!-- Generator: Adobe Illustrator 16.0.0, SVG Export Plug-In . SVG Version: 6.00 Build 0)  -->
<!DOCTYPE svg PUBLIC "-//W3C//DTD SVG 1.1//EN" "http://www.w3.org/Graphics/SVG/1.1/DTD/svg11.dtd">
<svg xmlns="http://www.w3.org/2000/svg" xmlns:xlink="http://www.w3.org/1999/xlink" version="1.1" id="Layer_1" x="0px" y="0px" width="1400px" height="980px" viewBox="0 0 1400 980" enable-background="new 0 0 1400 980" xml:space="preserve">
<g>
	<g>
		<g>
			
		</g>
	</g>
	<g>
		<g>
			<path fill="#808285" d="M461.5,798.6v56.6c0,28.5,23.1,51.6,51.6,51.6h363.1c28.5,0,51.6-23.1,51.6-51.6v-56.6H461.5z"/>
			<path d="M876.1,909.3H513c-29.8,0-54.1-24.3-54.1-54.1v-56.6c0-1.4,1.1-2.5,2.5-2.5h466.2c1.4,0,2.5,1.1,2.5,2.5v56.6     C930.2,885,905.9,909.3,876.1,909.3z M464,801.2v54c0,27,22,49,49,49h363.1c27,0,49-22,49-49v-54H464z"/>
		</g>
		<g>
			<path fill="#808285" d="M927.7,141.9c0-28.5-23.1-51.6-51.6-51.6H513c-28.5,0-51.6,23.1-51.6,51.6v38h466.2V141.9z"/>
			<path d="M927.7,182.4H461.5c-1.4,0-2.5-1.1-2.5-2.5v-38c0-29.8,24.3-54.1,54.1-54.1h363.1c29.8,0,54.1,24.3,54.1,54.1v38     C930.2,181.3,929.1,182.4,927.7,182.4z M464,177.4h461.1v-35.4c0-27-22-49-49-49H513c-27,0-49,22-49,49V177.4z"/>
		</g>
		<g>
			<rect x="461.5" y="179.9" fill="#74C9FF" width="466.2" height="618.7"/>
			<path d="M927.7,801.2H461.5c-1.4,0-2.5-1.1-2.5-2.5V179.9c0-1.4,1.1-2.5,2.5-2.5h466.2c1.4,0,2.5,1.1,2.5,2.5v618.7     C930.2,800,929.1,801.2,927.7,801.2z M464,796.1h461.1V182.4H464V796.1z"/>
		</g>
	</g>
	<g>
		<path fill="#D1D3D4" d="M738.6,852.7c0,24.3-19.7,44-44,44c-24.3,0-44-19.7-44-44c0-24.3,19.7-44,44-44    C718.9,808.7,738.6,828.4,738.6,852.7z"/>
		<path d="M694.6,899.2c-25.7,0-46.6-20.9-46.6-46.5c0-25.7,20.9-46.6,46.6-46.6c25.7,0,46.5,20.9,46.5,46.6    C741.1,878.3,720.2,899.2,694.6,899.2z M694.6,811.2c-22.9,0-41.5,18.6-41.5,41.5s18.6,41.5,41.5,41.5c22.9,0,41.5-18.6,41.5-41.5    S717.5,811.2,694.6,811.2z"/>
	</g>
	<g>
		<circle fill="#FFF79B" cx="700" cy="363.2" r="104"/>
		<path d="M700,469.7c-58.7,0-106.5-47.8-106.5-106.5S641.3,256.7,700,256.7c58.7,0,106.5,47.8,106.5,106.5S758.7,469.7,700,469.7z     M700,261.8c-55.9,0-101.4,45.5-101.4,101.4c0,55.9,45.5,101.4,101.4,101.4s101.4-45.5,101.4-101.4    C801.4,307.3,755.9,261.8,700,261.8z"/>
	</g>
	<g>
		<path d="M521.7,365.8c-1.4,0-2.5-1.1-2.5-2.5c0-23.8,4.5-46.9,13.5-68.7c0.5-1.3,2-1.9,3.3-1.4c1.3,0.5,1.9,2,1.4,3.3    c-8.7,21.2-13.1,43.6-13.1,66.7C524.3,364.6,523.1,365.8,521.7,365.8z"/>
	</g>
	<g>
		<path d="M700,544c-36.1,0-71-10.6-100.8-30.7c-38.1-25.6-64.8-64.2-75.2-108.6c-0.3-1.4,0.5-2.7,1.9-3c1.4-0.3,2.7,0.5,3,1.9    c10.1,43.2,36.1,80.6,73.1,105.5c29,19.5,62.9,29.8,98,29.8c1.4,0,2.5,1.1,2.5,2.5C702.5,542.9,701.4,544,700,544z"/>
	</g>
	<g>
		<path d="M700,261.8c-1.4,0-2.5-1.1-2.5-2.5v-39.6c0-1.4,1.1-2.5,2.5-2.5s2.5,1.1,2.5,2.5v39.6C702.5,260.6,701.4,261.8,700,261.8z    "/>
	</g>
	<g>
		<path d="M638.9,281.6c-0.8,0-1.6-0.4-2.1-1l-23.3-32c-0.8-1.1-0.6-2.7,0.6-3.5c1.1-0.8,2.7-0.6,3.5,0.6l23.3,32    c0.8,1.1,0.6,2.7-0.6,3.5C639.9,281.5,639.4,281.6,638.9,281.6z"/>
	</g>
	<g>
		<path d="M601.1,333.6c-0.3,0-0.5,0-0.8-0.1l-37.6-12.2c-1.3-0.4-2.1-1.9-1.6-3.2c0.4-1.3,1.9-2.1,3.2-1.6l37.6,12.2    c1.3,0.4,2.1,1.9,1.6,3.2C603.2,332.9,602.2,333.6,601.1,333.6z"/>
	</g>
	<g>
		<path d="M563.5,410.1c-1.1,0-2.1-0.7-2.4-1.8c-0.4-1.3,0.3-2.8,1.6-3.2l37.6-12.2c1.3-0.4,2.8,0.3,3.2,1.6    c0.4,1.3-0.3,2.8-1.6,3.2L564.2,410C564,410.1,563.7,410.1,563.5,410.1z"/>
	</g>
	<g>
		<path d="M615.6,481.9c-0.5,0-1-0.2-1.5-0.5c-1.1-0.8-1.4-2.4-0.6-3.5l23.3-32c0.8-1.1,2.4-1.4,3.5-0.6c1.1,0.8,1.4,2.4,0.6,3.5    l-23.3,32C617.2,481.5,616.4,481.9,615.6,481.9z"/>
	</g>
	<g>
		<path d="M700,509.3c-1.4,0-2.5-1.1-2.5-2.5v-39.6c0-1.4,1.1-2.5,2.5-2.5s2.5,1.1,2.5,2.5v39.6C702.5,508.2,701.4,509.3,700,509.3z    "/>
	</g>
	<g>
		<path d="M784.4,481.9c-0.8,0-1.6-0.4-2.1-1l-23.3-32c-0.8-1.1-0.6-2.7,0.6-3.5c1.1-0.8,2.7-0.6,3.5,0.6l23.3,32    c0.8,1.1,0.6,2.7-0.6,3.5C785.4,481.7,784.9,481.9,784.4,481.9z"/>
	</g>
	<g>
		<path d="M836.5,410.1c-0.3,0-0.5,0-0.8-0.1l-37.6-12.2c-1.3-0.4-2.1-1.9-1.6-3.2c0.4-1.3,1.9-2.1,3.2-1.6l37.6,12.2    c1.3,0.4,2.1,1.9,1.6,3.2C838.6,409.4,837.6,410.1,836.5,410.1z"/>
	</g>
	<g>
		<path d="M798.9,333.6c-1.1,0-2.1-0.7-2.4-1.8c-0.4-1.3,0.3-2.8,1.6-3.2l37.6-12.2c1.3-0.4,2.8,0.3,3.2,1.6    c0.4,1.3-0.3,2.8-1.6,3.2l-37.6,12.2C799.4,333.6,799.2,333.6,798.9,333.6z"/>
	</g>
	<g>
		<path d="M761.1,281.6c-0.5,0-1-0.2-1.5-0.5c-1.1-0.8-1.4-2.4-0.6-3.5l23.3-32c0.8-1.1,2.4-1.4,3.5-0.6c1.1,0.8,1.4,2.4,0.6,3.5    l-23.3,32C762.7,281.3,761.9,281.6,761.1,281.6z"/>
	</g>
	<g>
		<path fill="#FFFFFF" d="M848.4,431.1h-6c0-37.5-30.4-67.9-67.9-67.9c-23.7,0-44.6,12.2-56.7,30.7c-3.9-1.3-8.1-2.1-12.5-2.1    c-21.7,0-39.3,17.6-39.3,39.3c0,4.3,0.7,8.4,2,12.2c-14.5,3.8-25.2,16.9-25.2,32.6c0,18.6,15.1,33.7,33.7,33.7h68.1h59.7h44.1    c21.7,0,39.2-17.6,39.2-39.3C887.6,448.7,870.1,431.1,848.4,431.1z"/>
		<path d="M848.4,512.1H676.5c-20,0-36.2-16.3-36.2-36.2c0-15.6,10-29.4,24.6-34.3c-0.9-3.4-1.4-7-1.4-10.5    c0-23,18.7-41.8,41.8-41.8c3.8,0,7.7,0.5,11.4,1.6c13.2-19,34.7-30.2,57.8-30.2c38,0,69,30.2,70.4,67.9h3.5    c23,0,41.8,18.7,41.8,41.8C890.2,493.4,871.4,512.1,848.4,512.1z M705.3,394.4c-20.2,0-36.7,16.5-36.7,36.7    c0,3.9,0.6,7.7,1.8,11.4c0.2,0.7,0.1,1.4-0.2,2c-0.3,0.6-0.9,1.1-1.6,1.2c-13.7,3.6-23.3,15.9-23.3,30.1c0,17.2,14,31.2,31.2,31.2    h171.9c20.2,0,36.7-16.5,36.7-36.7s-16.5-36.7-36.7-36.7h-6c-1.4,0-2.5-1.1-2.5-2.5c0-36-29.3-65.3-65.3-65.3    c-22,0-42.5,11-54.6,29.5c-0.6,1-1.8,1.4-2.9,1C713.2,395,709.3,394.4,705.3,394.4z"/>
	</g>
	<g>
		<path fill="#FFFFFF" d="M1239.7,140.7h-6c0-37.5-30.4-67.9-67.9-67.9c-23.7,0-44.6,12.2-56.7,30.7c-3.9-1.3-8.1-2.1-12.5-2.1    c-21.7,0-39.3,17.6-39.3,39.3c0,4.3,0.7,8.4,2,12.2c-14.5,3.8-25.2,16.9-25.2,32.6c0,18.6,15.1,33.7,33.7,33.7h68.1h59.7h44.1    c21.7,0,39.3-17.6,39.3-39.3C1278.9,158.3,1261.4,140.7,1239.7,140.7z"/>
		<path d="M1239.7,221.7h-171.9c-20,0-36.2-16.3-36.2-36.2c0-15.6,10-29.4,24.6-34.3c-0.9-3.4-1.3-7-1.3-10.5    c0-23,18.7-41.8,41.8-41.8c3.8,0,7.7,0.5,11.4,1.6c13.2-19,34.7-30.2,57.8-30.2c38,0,69,30.2,70.4,67.9h3.5    c23,0,41.8,18.7,41.8,41.8S1262.7,221.7,1239.7,221.7z M1096.6,104c-20.2,0-36.7,16.5-36.7,36.7c0,3.9,0.6,7.7,1.8,11.4    c0.2,0.7,0.1,1.4-0.2,2s-0.9,1.1-1.6,1.2c-13.7,3.6-23.3,16-23.3,30.1c0,17.2,14,31.2,31.2,31.2h171.9c20.2,0,36.7-16.5,36.7-36.7    s-16.5-36.7-36.7-36.7h-6c-1.4,0-2.5-1.1-2.5-2.5c0-36-29.3-65.3-65.3-65.3c-22,0-42.5,11-54.6,29.5c-0.6,1-1.8,1.4-2.9,1    C1104.5,104.6,1100.5,104,1096.6,104z"/>
	</g>
	<g>
		<path fill="#FFFFFF" d="M1251.6,439.1h-6c0-37.5-30.4-67.9-67.9-67.9c-23.7,0-44.6,12.2-56.7,30.7c-3.9-1.3-8.1-2.1-12.5-2.1    c-21.7,0-39.3,17.6-39.3,39.3c0,4.3,0.7,8.4,2,12.2c-14.5,3.8-25.2,16.9-25.2,32.6c0,18.6,15.1,33.7,33.7,33.7h68.1h59.7h44.1    c21.7,0,39.3-17.6,39.3-39.3C1290.9,456.7,1273.3,439.1,1251.6,439.1z"/>
		<path d="M1251.6,520.2h-171.9c-20,0-36.2-16.3-36.2-36.2c0-15.6,10-29.4,24.6-34.3c-0.9-3.4-1.3-7-1.3-10.5    c0-23,18.7-41.8,41.8-41.8c3.8,0,7.7,0.5,11.4,1.6c13.2-19,34.7-30.2,57.8-30.2c38,0,69,30.2,70.4,67.9h3.5    c23,0,41.8,18.7,41.8,41.8S1274.7,520.2,1251.6,520.2z M1108.6,402.4c-20.2,0-36.7,16.5-36.7,36.7c0,3.9,0.6,7.7,1.8,11.4    c0.2,0.7,0.1,1.4-0.2,2s-0.9,1.1-1.6,1.2c-13.7,3.6-23.3,15.9-23.3,30.1c0,17.2,14,31.2,31.2,31.2h171.9    c20.2,0,36.7-16.5,36.7-36.7c0-20.2-16.5-36.7-36.7-36.7h-6c-1.4,0-2.5-1.1-2.5-2.5c0-36-29.3-65.3-65.3-65.3    c-22,0-42.5,11-54.6,29.5c-0.6,1-1.9,1.4-2.9,1C1116.4,403.1,1112.5,402.4,1108.6,402.4z"/>
	</g>
	<g>
		<path fill="#FFFFFF" d="M317.4,716.1h-6c0-37.5-30.4-67.9-67.9-67.9c-23.7,0-44.6,12.2-56.7,30.7c-3.9-1.3-8.1-2.1-12.5-2.1    c-21.7,0-39.3,17.6-39.3,39.3c0,4.3,0.7,8.4,2,12.2c-14.5,3.8-25.2,16.9-25.2,32.6c0,18.6,15.1,33.7,33.7,33.7h68.1h59.7h44.1    c21.7,0,39.2-17.6,39.2-39.3C356.7,733.7,339.1,716.1,317.4,716.1z"/>
		<path d="M317.4,797.1H145.5c-20,0-36.2-16.3-36.2-36.2c0-15.6,10-29.4,24.6-34.3c-0.9-3.4-1.4-7-1.4-10.5    c0-23,18.7-41.8,41.8-41.8c3.8,0,7.7,0.5,11.4,1.6c13.2-19,34.7-30.2,57.8-30.2c38,0,69,30.2,70.4,67.9h3.5    c23,0,41.8,18.7,41.8,41.8C359.2,778.4,340.4,797.1,317.4,797.1z M174.3,679.4c-20.2,0-36.7,16.5-36.7,36.7    c0,3.9,0.6,7.7,1.8,11.4c0.2,0.7,0.1,1.4-0.2,2c-0.3,0.6-0.9,1.1-1.6,1.2c-13.7,3.6-23.3,16-23.3,30.1c0,17.2,14,31.2,31.2,31.2    h171.9c20.2,0,36.7-16.5,36.7-36.7s-16.5-36.7-36.7-36.7h-6c-1.4,0-2.5-1.1-2.5-2.5c0-36-29.3-65.3-65.3-65.3    c-22,0-42.4,11-54.6,29.5c-0.6,1-1.8,1.4-2.9,1C182.2,680,178.3,679.4,174.3,679.4z"/>
	</g>
	<g>
		<path fill="#FFFFFF" d="M1239.7,726.1h-6c0-37.5-30.4-67.9-67.9-67.9c-23.7,0-44.6,12.2-56.7,30.7c-3.9-1.3-8.1-2.1-12.5-2.1    c-21.7,0-39.3,17.6-39.3,39.3c0,4.3,0.7,8.4,2,12.2c-14.5,3.8-25.2,16.9-25.2,32.6c0,18.6,15.1,33.7,33.7,33.7h68.1h59.7h44.1    c21.7,0,39.3-17.6,39.3-39.3S1261.4,726.1,1239.7,726.1z"/>
		<path d="M1239.7,807.2h-171.9c-20,0-36.2-16.3-36.2-36.2c0-15.6,10-29.4,24.6-34.3c-0.9-3.4-1.3-7-1.3-10.5    c0-23,18.7-41.8,41.8-41.8c3.8,0,7.7,0.5,11.4,1.6c13.2-19,34.6-30.2,57.8-30.2c38,0,69,30.2,70.4,67.9h3.5    c23,0,41.8,18.7,41.8,41.8C1281.5,788.4,1262.7,807.2,1239.7,807.2z M1096.6,689.4c-20.2,0-36.7,16.5-36.7,36.7    c0,3.9,0.6,7.7,1.8,11.4c0.2,0.7,0.2,1.4-0.2,2c-0.3,0.6-0.9,1.1-1.6,1.2c-13.7,3.6-23.3,16-23.3,30.1c0,17.2,14,31.2,31.2,31.2    h171.9c20.2,0,36.7-16.5,36.7-36.7s-16.5-36.7-36.7-36.7h-6c-1.4,0-2.5-1.1-2.5-2.5c0-36-29.3-65.3-65.3-65.3    c-22,0-42.5,11-54.6,29.5c-0.6,1-1.8,1.4-2.9,1C1104.5,690.1,1100.5,689.4,1096.6,689.4z"/>
	</g>
	<g>
		<path d="M852.5,492.5H746.7c-1.4,0-2.5-1.1-2.5-2.5s1.1-2.5,2.5-2.5h105.8c1.4,0,2.5,1.1,2.5,2.5S853.9,492.5,852.5,492.5z"/>
	</g>
	<g>
		<path d="M819.9,431.6c-1.4,0-2.5-1.1-2.5-2.5c0-22.7-18.5-41.2-41.2-41.2c-1.4,0-2.5-1.1-2.5-2.5c0-1.4,1.1-2.5,2.5-2.5    c25.5,0,46.3,20.7,46.3,46.3C822.5,430.5,821.3,431.6,819.9,431.6z"/>
	</g>
	<g>
		<path d="M804,544h-72.5c-1.4,0-2.5-1.1-2.5-2.5c0-1.4,1.1-2.5,2.5-2.5H804c1.4,0,2.5,1.1,2.5,2.5C806.5,542.9,805.4,544,804,544z"/>
	</g>
	<g>
		<path d="M765.2,137.7H634.8c-1.4,0-2.5-1.1-2.5-2.5c0-1.4,1.1-2.5,2.5-2.5h130.4c1.4,0,2.5,1.1,2.5,2.5    C767.8,136.5,766.6,137.7,765.2,137.7z"/>
	</g>
	<g>
		<path fill="#D1D3D4" d="M823.5,135.1c0,8.1-6.6,14.7-14.7,14.7c-8.1,0-14.7-6.6-14.7-14.7c0-8.1,6.6-14.7,14.7-14.7    C816.9,120.4,823.5,127,823.5,135.1z"/>
		<path d="M808.8,152.4c-9.5,0-17.2-7.7-17.2-17.2c0-9.5,7.7-17.2,17.2-17.2c9.5,0,17.2,7.7,17.2,17.2    C826,144.6,818.3,152.4,808.8,152.4z M808.8,123c-6.7,0-12.1,5.4-12.1,12.1c0,6.7,5.4,12.1,12.1,12.1c6.7,0,12.1-5.5,12.1-12.1    C820.9,128.4,815.5,123,808.8,123z"/>
	</g>
	<g>
		<path fill="#FFA094" d="M585.7,618.2c0,16.6-13.5,30.1-30.1,30.1c-16.6,0-30.1-13.5-30.1-30.1s13.5-30.1,30.1-30.1    C572.3,588.1,585.7,601.5,585.7,618.2z"/>
		<path d="M555.7,650.8c-18,0-32.6-14.6-32.6-32.6c0-18,14.6-32.6,32.6-32.6c18,0,32.6,14.6,32.6,32.6    C588.3,636.1,573.6,650.8,555.7,650.8z M555.7,590.6c-15.2,0-27.5,12.4-27.5,27.5s12.4,27.5,27.5,27.5c15.2,0,27.5-12.4,27.5-27.5    S570.8,590.6,555.7,590.6z"/>
	</g>
	<g>
		<path fill="#FFA094" d="M585.7,710.2c0,16.6-13.5,30.1-30.1,30.1c-16.6,0-30.1-13.5-30.1-30.1c0-16.6,13.5-30.1,30.1-30.1    C572.3,680.1,585.7,693.6,585.7,710.2z"/>
		<path d="M555.7,742.8c-18,0-32.6-14.6-32.6-32.6c0-18,14.6-32.6,32.6-32.6c18,0,32.6,14.6,32.6,32.6    C588.3,728.2,573.6,742.8,555.7,742.8z M555.7,682.6c-15.2,0-27.5,12.4-27.5,27.5s12.4,27.5,27.5,27.5c15.2,0,27.5-12.4,27.5-27.5    S570.8,682.6,555.7,682.6z"/>
	</g>
	<g>
		<path d="M1116.9,290.9c-0.8,0-1.7-0.4-2.2-1.2l-34.4-55.9c-0.7-1.2-0.4-2.8,0.8-3.5c1.2-0.7,2.8-0.4,3.5,0.8l34.4,55.9    c0.7,1.2,0.4,2.8-0.8,3.5C1117.8,290.7,1117.4,290.9,1116.9,290.9z"/>
	</g>
	<g>
		<path d="M1169.5,320.5c-0.8,0-1.7-0.4-2.2-1.2l-52.6-85.5c-0.7-1.2-0.4-2.8,0.8-3.5c1.2-0.7,2.8-0.4,3.5,0.8l52.6,85.5    c0.7,1.2,0.4,2.8-0.8,3.5C1170.5,320.4,1170,320.5,1169.5,320.5z"/>
	</g>
	<g>
		<path d="M1185.7,290.9c-0.8,0-1.7-0.4-2.2-1.2l-34.4-55.9c-0.7-1.2-0.4-2.8,0.8-3.5c1.2-0.7,2.8-0.4,3.5,0.8l34.4,55.9    c0.7,1.2,0.4,2.8-0.8,3.5C1186.6,290.7,1186.1,290.9,1185.7,290.9z"/>
	</g>
	<g>
		<path d="M1238.3,320.5c-0.8,0-1.7-0.4-2.2-1.2l-52.6-85.5c-0.7-1.2-0.4-2.8,0.8-3.5c1.2-0.7,2.8-0.4,3.5,0.8l52.6,85.5    c0.7,1.2,0.4,2.8-0.8,3.5C1239.2,320.4,1238.7,320.5,1238.3,320.5z"/>
	</g>
	<g>
		<path d="M1254.4,290.9c-0.8,0-1.7-0.4-2.2-1.2l-34.4-55.9c-0.7-1.2-0.4-2.8,0.8-3.5c1.2-0.7,2.8-0.4,3.5,0.8l34.4,55.9    c0.7,1.2,0.4,2.8-0.8,3.5C1255.3,290.7,1254.9,290.9,1254.4,290.9z"/>
	</g>
	<g>
		<polygon fill="#FFFFFF" points="1219.2,517.9 1151.2,407.4 1171.1,497.5 1132.3,504.5 1200.3,615 1180.4,524.9   "/>
		<path d="M1200.3,617.6c-0.9,0-1.7-0.4-2.2-1.2l-68-110.5c-0.4-0.7-0.5-1.6-0.2-2.4c0.3-0.8,1-1.3,1.9-1.5l36.2-6.5l-19.3-87.6    c-0.3-1.2,0.4-2.4,1.5-2.9c1.1-0.5,2.5,0,3.1,1l68,110.5c0.4,0.7,0.5,1.6,0.2,2.4c-0.3,0.8-1,1.3-1.9,1.5l-36.2,6.5l19.3,87.6    c0.3,1.2-0.4,2.4-1.5,2.9C1200.9,617.5,1200.6,617.6,1200.3,617.6z M1136.4,506.4l58.2,94.6l-16.6-75.5c-0.1-0.7,0-1.4,0.4-2    c0.4-0.6,1-1,1.7-1.1l35.1-6.3l-58.2-94.6l16.6,75.5c0.1,0.7,0,1.4-0.4,2c-0.4,0.6-1,1-1.7,1.1L1136.4,506.4z"/>
	</g>
	<g>
		<path fill="#FFFFFF" d="M1076.7,852.2c0,8.3,6.8,15.1,15.1,15.1c8.3,0,15.1-6.8,15.1-15.1c0-2.6-0.7-5.1-1.9-7.3l0,0    c-0.1-0.3-0.3-0.5-0.5-0.8l-12.7-21.3l-12.7,21.3c-0.2,0.3-0.3,0.5-0.5,0.8l0,0l0,0C1077.4,847,1076.7,849.5,1076.7,852.2z"/>
		<path d="M1091.8,869.8c-9.7,0-17.6-7.9-17.6-17.6c0-3,0.8-5.9,2.2-8.5c0.2-0.3,0.4-0.7,0.6-1l12.7-21.2c0.9-1.5,3.4-1.5,4.4,0    l12.7,21.3c0.2,0.3,0.3,0.6,0.5,0.9c1.4,2.6,2.2,5.5,2.2,8.5C1109.4,861.9,1101.5,869.8,1091.8,869.8z M1091.8,827.7l-10.5,17.7    c-0.2,0.3-0.3,0.5-0.4,0.7c-1.1,1.9-1.6,4-1.6,6.1c0,6.9,5.6,12.5,12.5,12.5c6.9,0,12.5-5.6,12.5-12.5c0-2.1-0.5-4.2-1.5-6    L1091.8,827.7z"/>
	</g>
	<g>
		<path fill="#FFFFFF" d="M1141.4,896.6c0,8.3,6.8,15.1,15.1,15.1c8.3,0,15.1-6.8,15.1-15.1c0-2.6-0.7-5.1-1.9-7.3l0,0    c-0.2-0.3-0.3-0.5-0.5-0.8l-12.7-21.3l-12.7,21.3c-0.2,0.3-0.3,0.5-0.5,0.8l0,0l0,0C1142.1,891.5,1141.4,894,1141.4,896.6z"/>
		<path d="M1156.5,914.2c-9.7,0-17.6-7.9-17.6-17.6c0-2.9,0.8-5.9,2.2-8.5c0.2-0.4,0.4-0.7,0.6-1l12.7-21.2c0.9-1.5,3.4-1.5,4.4,0    l13.2,22.1c1.5,2.7,2.2,5.6,2.2,8.6C1174.1,906.3,1166.2,914.2,1156.5,914.2z M1156.5,872.2l-11,18.4c-1,1.9-1.6,3.9-1.6,6.1    c0,6.9,5.6,12.5,12.5,12.5c6.9,0,12.5-5.6,12.5-12.5c0-2.1-0.5-4.2-1.5-6L1156.5,872.2z"/>
	</g>
	<g>
		<path fill="#FFFFFF" d="M1236.3,852.2c0,8.3-6.8,15.1-15.1,15.1c-8.3,0-15.1-6.8-15.1-15.1c0-2.6,0.7-5.1,1.9-7.3l0,0    c0.2-0.3,0.3-0.5,0.5-0.8l12.7-21.3l12.7,21.3c0.2,0.3,0.3,0.5,0.5,0.8l0,0l0,0C1235.6,847,1236.3,849.5,1236.3,852.2z"/>
		<path d="M1221.2,869.8c-9.7,0-17.6-7.9-17.6-17.6c0-3,0.8-5.9,2.2-8.5l13.3-22.2c0.5-0.8,1.3-1.2,2.2-1.2l0,0    c0.9,0,1.7,0.5,2.2,1.2l12.7,21.3c0.2,0.3,0.4,0.6,0.5,0.9c1.4,2.6,2.2,5.5,2.2,8.5C1238.8,861.9,1230.9,869.8,1221.2,869.8z     M1221.2,827.7l-11,18.4c-1,1.9-1.6,3.9-1.6,6.1c0,6.9,5.6,12.5,12.5,12.5c6.9,0,12.5-5.6,12.5-12.5c0-2.1-0.5-4.2-1.6-6    L1221.2,827.7z"/>
	</g>
	<g>
		<g>
			<g>
				<path d="M187.8,239.5c-45,0-81.6-36.6-81.6-81.6c0-45,36.6-81.6,81.6-81.6s81.6,36.6,81.6,81.6      C269.3,202.9,232.7,239.5,187.8,239.5z M187.8,81.4c-42.2,0-76.5,34.3-76.5,76.5c0,42.2,34.3,76.5,76.5,76.5      c42.2,0,76.5-34.3,76.5-76.5C264.3,115.7,230,81.4,187.8,81.4z"/>
			</g>
			<g>
				<path d="M187.8,81.4c-1.4,0-2.5-1.1-2.5-2.5V48.8c0-1.4,1.1-2.5,2.5-2.5s2.5,1.1,2.5,2.5v30.1C190.3,80.3,189.2,81.4,187.8,81.4      z"/>
			</g>
			<g>
				<path d="M141.3,96.5c-0.8,0-1.6-0.4-2.1-1l-17.7-24.4c-0.8-1.1-0.6-2.7,0.6-3.5c1.1-0.8,2.7-0.6,3.5,0.6l17.7,24.4      c0.8,1.1,0.6,2.7-0.6,3.5C142.3,96.4,141.8,96.5,141.3,96.5z"/>
			</g>
			<g>
				<path d="M112.6,136c-0.3,0-0.5,0-0.8-0.1l-28.6-9.3c-1.3-0.4-2.1-1.9-1.6-3.2c0.4-1.3,1.9-2.1,3.2-1.6l28.6,9.3      c1.3,0.4,2.1,1.9,1.6,3.2C114.7,135.4,113.7,136,112.6,136z"/>
			</g>
			<g>
				<path d="M84,194.2c-1.1,0-2.1-0.7-2.4-1.8c-0.4-1.3,0.3-2.8,1.6-3.2l28.6-9.3c1.3-0.4,2.8,0.3,3.2,1.6c0.4,1.3-0.3,2.8-1.6,3.2      l-28.6,9.3C84.5,194.2,84.2,194.2,84,194.2z"/>
			</g>
			<g>
				<path d="M123.6,248.8c-0.5,0-1-0.2-1.5-0.5c-1.1-0.8-1.4-2.4-0.6-3.5l17.7-24.3c0.8-1.1,2.4-1.4,3.5-0.6      c1.1,0.8,1.4,2.4,0.6,3.5l-17.7,24.3C125.2,248.4,124.4,248.8,123.6,248.8z"/>
			</g>
			<g>
				<path d="M187.8,269.6c-1.4,0-2.5-1.1-2.5-2.5V237c0-1.4,1.1-2.5,2.5-2.5s2.5,1.1,2.5,2.5v30.1      C190.3,268.5,189.2,269.6,187.8,269.6z"/>
			</g>
			<g>
				<path d="M251.9,248.8c-0.8,0-1.6-0.4-2.1-1l-17.7-24.3c-0.8-1.1-0.6-2.7,0.6-3.5c1.1-0.8,2.7-0.6,3.5,0.6l17.7,24.3      c0.8,1.1,0.6,2.7-0.6,3.5C253,248.6,252.4,248.8,251.9,248.8z"/>
			</g>
			<g>
				<path d="M291.6,194.2c-0.3,0-0.5,0-0.8-0.1l-28.6-9.3c-1.3-0.4-2.1-1.9-1.6-3.2c0.4-1.3,1.9-2.1,3.2-1.6l28.6,9.3      c1.3,0.4,2.1,1.9,1.6,3.2C293.6,193.5,292.6,194.2,291.6,194.2z"/>
			</g>
			<g>
				<path d="M262.9,136c-1.1,0-2.1-0.7-2.4-1.8c-0.4-1.3,0.3-2.8,1.6-3.2l28.6-9.3c1.3-0.4,2.8,0.3,3.2,1.6c0.4,1.3-0.3,2.8-1.6,3.2      l-28.6,9.3C263.5,136,263.2,136,262.9,136z"/>
			</g>
			<g>
				<path d="M234.2,96.5c-0.5,0-1-0.2-1.5-0.5c-1.1-0.8-1.4-2.4-0.6-3.5l17.7-24.3c0.8-1.1,2.4-1.4,3.5-0.6c1.1,0.8,1.4,2.4,0.6,3.5      l-17.7,24.3C235.8,96.2,235,96.5,234.2,96.5z"/>
			</g>
		</g>
		<g>
			<path fill="#FFFFFF" d="M192.8,178.6h4.6c0-28.5,23.1-51.6,51.6-51.6c18,0,33.9,9.3,43.1,23.3c3-1,6.2-1.6,9.5-1.6     c16.5,0,29.8,13.4,29.8,29.8c0,3.2-0.5,6.4-1.5,9.3c11,2.9,19.2,12.9,19.2,24.8c0,14.1-11.5,25.6-25.6,25.6h-51.8h-45.3h-33.6     c-16.5,0-29.8-13.4-29.8-29.8C163,192,176.4,178.6,192.8,178.6z"/>
			<path d="M323.5,240.8H192.8c-17.8,0-32.4-14.5-32.4-32.4s14.5-32.4,32.4-32.4h2.1c1.3-28.7,25.1-51.6,54.1-51.6     c17.6,0,34,8.5,44.2,22.9c2.8-0.8,5.6-1.1,8.4-1.1c17.9,0,32.4,14.5,32.4,32.4c0,2.6-0.3,5.1-0.9,7.6c11.1,4,18.6,14.5,18.6,26.5     C351.7,228.2,339,240.8,323.5,240.8z M192.8,181.2c-15.1,0-27.3,12.2-27.3,27.3c0,15.1,12.2,27.3,27.3,27.3h130.7     c12.7,0,23.1-10.4,23.1-23.1c0-10.5-7.1-19.7-17.3-22.3c-0.7-0.2-1.3-0.6-1.6-1.2c-0.3-0.6-0.4-1.3-0.2-2     c0.9-2.8,1.4-5.6,1.4-8.5c0-15.1-12.2-27.3-27.3-27.3c-2.9,0-5.8,0.5-8.7,1.4c-1.1,0.4-2.3,0-2.9-1c-9.1-13.9-24.4-22.2-41-22.2     c-27,0-49,22-49,49c0,1.4-1.1,2.5-2.5,2.5H192.8z"/>
		</g>
		<g>
			<path fill="#FFFFFF" d="M247.2,217.8h-4.6c0-28.5-23.1-51.6-51.6-51.6c-18,0-33.9,9.3-43.1,23.3c-3-1-6.2-1.6-9.5-1.6     c-16.5,0-29.8,13.4-29.8,29.8c0,3.2,0.5,6.4,1.5,9.3c-11,2.9-19.2,12.9-19.2,24.8c0,14.1,11.5,25.6,25.6,25.6h51.7h45.4h33.6     c16.5,0,29.8-13.4,29.8-29.8C277,231.2,263.7,217.8,247.2,217.8z"/>
			<path d="M247.2,280H116.5c-15.5,0-28.2-12.6-28.2-28.2c0-11.9,7.5-22.5,18.6-26.5c-0.6-2.5-0.9-5-0.9-7.6     c0-17.9,14.5-32.4,32.4-32.4c2.8,0,5.7,0.4,8.4,1.1c10.2-14.4,26.5-22.9,44.2-22.9c29,0,52.7,22.9,54.1,51.6h2.1     c17.9,0,32.4,14.5,32.4,32.4C279.6,265.5,265,280,247.2,280z M138.4,190.5c-15.1,0-27.3,12.3-27.3,27.3c0,2.9,0.5,5.7,1.4,8.5     c0.2,0.7,0.2,1.4-0.2,2c-0.3,0.6-0.9,1.1-1.6,1.2c-10.2,2.6-17.3,11.8-17.3,22.3c0,12.7,10.4,23.1,23.1,23.1h130.7     c15.1,0,27.3-12.3,27.3-27.3c0-15.1-12.2-27.3-27.3-27.3h-4.6c-1.4,0-2.5-1.1-2.5-2.5c0-27-22-49-49-49c-16.5,0-31.9,8.3-41,22.2     c-0.6,1-1.8,1.4-2.9,1C144.3,191,141.4,190.5,138.4,190.5z"/>
		</g>
		<g>
			<path fill="#FFFFFF" d="M217.6,252.2h4.6c0-28.5,23.1-51.6,51.6-51.6c18,0,33.9,9.3,43.1,23.3c3-1,6.2-1.6,9.5-1.6     c16.5,0,29.8,13.4,29.8,29.8c0,3.2-0.5,6.4-1.5,9.3c11,2.9,19.2,12.9,19.2,24.8c0,14.2-11.5,25.6-25.6,25.6h-51.8h-45.4h-33.6     c-16.5,0-29.8-13.4-29.8-29.8C187.8,265.6,201.1,252.2,217.6,252.2z"/>
			<path d="M348.3,314.4H217.6c-17.9,0-32.4-14.5-32.4-32.4s14.5-32.4,32.4-32.4h2.1c1.3-28.7,25.1-51.6,54.1-51.6     c17.6,0,34,8.5,44.2,22.9c2.8-0.8,5.6-1.1,8.4-1.1c17.9,0,32.4,14.5,32.4,32.4c0,2.6-0.3,5.1-0.9,7.6c11.1,4,18.6,14.5,18.6,26.5     C376.4,301.8,363.8,314.4,348.3,314.4z M217.6,254.8c-15.1,0-27.3,12.2-27.3,27.3c0,15.1,12.2,27.3,27.3,27.3h130.7     c12.7,0,23.1-10.4,23.1-23.1c0-10.5-7.1-19.7-17.3-22.3c-0.7-0.2-1.3-0.6-1.6-1.2c-0.3-0.6-0.4-1.3-0.2-2     c0.9-2.7,1.4-5.6,1.4-8.5c0-15.1-12.2-27.3-27.3-27.3c-2.9,0-5.8,0.5-8.7,1.4c-1.1,0.4-2.3-0.1-2.9-1     c-9.1-13.9-24.5-22.2-41-22.2c-27,0-49.1,22-49.1,49.1c0,1.4-1.1,2.5-2.5,2.5H217.6z"/>
		</g>
	</g>
	<g>
		<g>
			<path fill="#FFFFFF" d="M317.4,449.6h-6c0-37.5-30.4-67.9-67.9-67.9c-23.7,0-44.6,12.2-56.7,30.7c-3.9-1.3-8.1-2.1-12.5-2.1     c-21.7,0-39.3,17.6-39.3,39.3c0,4.3,0.7,8.4,2,12.2c-14.5,3.8-25.2,16.9-25.2,32.6c0,18.6,15.1,33.7,33.7,33.7h68.1h59.7h44.1     c21.7,0,39.2-17.6,39.2-39.3C356.7,467.2,339.1,449.6,317.4,449.6z"/>
			<path d="M317.4,530.6H145.5c-20,0-36.2-16.3-36.2-36.2c0-15.6,10-29.4,24.6-34.3c-0.9-3.4-1.4-7-1.4-10.5     c0-23,18.7-41.8,41.8-41.8c3.8,0,7.7,0.5,11.4,1.6c13.2-19,34.7-30.2,57.8-30.2c38,0,69,30.2,70.4,67.9h3.5     c23,0,41.8,18.7,41.8,41.8C359.2,511.9,340.4,530.6,317.4,530.6z M174.3,412.9c-20.2,0-36.7,16.5-36.7,36.7     c0,3.9,0.6,7.7,1.8,11.4c0.2,0.7,0.1,1.4-0.2,2s-0.9,1.1-1.6,1.2c-13.7,3.6-23.3,16-23.3,30.1c0,17.2,14,31.2,31.2,31.2h171.9     c20.2,0,36.7-16.5,36.7-36.7c0-20.2-16.5-36.7-36.7-36.7h-6c-1.4,0-2.5-1.1-2.5-2.5c0-36-29.3-65.3-65.3-65.3     c-22,0-42.5,11-54.6,29.5c-0.6,1-1.8,1.4-2.9,1C182.2,413.5,178.3,412.9,174.3,412.9z"/>
		</g>
		<g>
			<path d="M173.5,501.2h-61.5c-1.4,0-2.5-1.1-2.5-2.5s1.1-2.5,2.5-2.5h61.5c13.6,0,24.7-11.1,24.7-24.7c0-10.6-8.6-19.2-19.2-19.2     c-8.2,0-14.9,6.7-14.9,14.9c0,6.3,5.1,11.4,11.4,11.4c4.8,0,8.6-3.9,8.6-8.6c0-3.5-2.9-6.4-6.4-6.4c-1.4,0-2.5-1.1-2.5-2.5     c0-1.4,1.1-2.5,2.5-2.5c6.3,0,11.5,5.1,11.5,11.5c0,7.6-6.1,13.7-13.7,13.7c-9.1,0-16.5-7.4-16.5-16.5c0-11,9-20,20-20     c13.4,0,24.3,10.9,24.3,24.3C203.3,487.8,189.9,501.2,173.5,501.2z"/>
		</g>
		<g>
			<path d="M229.5,579.5c-11,0-20-9-20-20c0-9.1,7.4-16.5,16.5-16.5c7.6,0,13.7,6.1,13.7,13.7c0,6.3-5.1,11.5-11.5,11.5     c-1.4,0-2.5-1.1-2.5-2.5c0-1.4,1.1-2.5,2.5-2.5c3.5,0,6.4-2.9,6.4-6.4c0-4.8-3.9-8.6-8.6-8.6c-6.3,0-11.4,5.1-11.4,11.4     c0,8.2,6.7,14.9,14.9,14.9c10.6,0,19.2-8.6,19.2-19.2c0-13.6-11.1-24.7-24.7-24.7h-80c-1.4,0-2.5-1.1-2.5-2.5     c0-1.4,1.1-2.5,2.5-2.5h80c16.4,0,29.8,13.4,29.8,29.8C253.9,568.6,242.9,579.5,229.5,579.5z"/>
		</g>
		<g>
			<path d="M235.2,515.8H117.6c-1.4,0-2.5-1.1-2.5-2.5s1.1-2.5,2.5-2.5h117.6c23.1,0,41.8-18.8,41.8-41.8c0-18.2-14.8-33-32.9-33     c-14.3,0-25.9,11.6-25.9,25.9c0,11.1,9.1,20.2,20.2,20.2c8.6,0,15.6-7,15.6-15.6c0-6.6-5.4-12-12-12c-1.4,0-2.5-1.1-2.5-2.5     c0-1.4,1.1-2.5,2.5-2.5c9.4,0,17.1,7.7,17.1,17.1c0,11.4-9.3,20.7-20.7,20.7c-13.9,0-25.2-11.3-25.2-25.2     c0-17.1,13.9-30.9,30.9-30.9c21,0,38,17.1,38,38C282.1,494.8,261.1,515.8,235.2,515.8z"/>
		</g>
	</g>
	<g>
		<g>
			<path d="M185.5,858.8c-0.6,0-1.3-0.2-1.8-0.7l-31.4-31.4c-1-1-1-2.6,0-3.6c1-1,2.6-1,3.6,0l31.4,31.4c1,1,1,2.6,0,3.6     C186.8,858.5,186.1,858.8,185.5,858.8z"/>
		</g>
		<g>
			<path d="M154.1,858.8c-0.6,0-1.3-0.2-1.8-0.7c-1-1-1-2.6,0-3.6l31.4-31.4c1-1,2.6-1,3.6,0c1,1,1,2.6,0,3.6l-31.4,31.4     C155.4,858.5,154.7,858.8,154.1,858.8z"/>
		</g>
		<g>
			<path d="M169.8,865.3c-1.4,0-2.5-1.1-2.5-2.5v-44.4c0-1.4,1.1-2.5,2.5-2.5c1.4,0,2.5,1.1,2.5,2.5v44.4     C172.3,864.2,171.2,865.3,169.8,865.3z"/>
		</g>
		<g>
			<path d="M147.6,843.1c-1.4,0-2.5-1.1-2.5-2.5c0-1.4,1.1-2.5,2.5-2.5l44.4,0c1.4,0,2.5,1.1,2.5,2.5c0,1.4-1.1,2.5-2.5,2.5     L147.6,843.1z"/>
		</g>
	</g>
	<g>
		<g>
			<path d="M249.9,903.2c-0.6,0-1.3-0.2-1.8-0.7l-31.4-31.4c-1-1-1-2.6,0-3.6c1-1,2.6-1,3.6,0l31.4,31.4c1,1,1,2.6,0,3.6     C251.2,903,250.6,903.2,249.9,903.2z"/>
		</g>
		<g>
			<path d="M218.5,903.2c-0.6,0-1.3-0.2-1.8-0.7c-1-1-1-2.6,0-3.6l31.4-31.4c1-1,2.6-1,3.6,0c1,1,1,2.6,0,3.6l-31.4,31.4     C219.8,903,219.2,903.2,218.5,903.2z"/>
		</g>
		<g>
			<path d="M234.2,909.7c-1.4,0-2.5-1.1-2.5-2.5v-44.4c0-1.4,1.1-2.5,2.5-2.5c1.4,0,2.5,1.1,2.5,2.5v44.4     C236.8,908.6,235.6,909.7,234.2,909.7z"/>
		</g>
		<g>
			<path d="M212,887.5c-1.4,0-2.5-1.1-2.5-2.5c0-1.4,1.1-2.5,2.5-2.5l44.4,0c1.4,0,2.5,1.1,2.5,2.5c0,1.4-1.1,2.5-2.5,2.5L212,887.5     z"/>
		</g>
	</g>
	<g>
		<g>
			<path d="M283,858.8c-0.6,0-1.3-0.2-1.8-0.7c-1-1-1-2.6,0-3.6l31.4-31.4c1-1,2.6-1,3.6,0c1,1,1,2.6,0,3.6l-31.4,31.4     C284.3,858.5,283.6,858.8,283,858.8z"/>
		</g>
		<g>
			<path d="M314.4,858.8c-0.6,0-1.3-0.2-1.8-0.7l-31.4-31.4c-1-1-1-2.6,0-3.6c1-1,2.6-1,3.6,0l31.4,31.4c1,1,1,2.6,0,3.6     C315.7,858.5,315,858.8,314.4,858.8z"/>
		</g>
		<g>
			<path d="M298.7,865.3c-1.4,0-2.5-1.1-2.5-2.5v-44.4c0-1.4,1.1-2.5,2.5-2.5c1.4,0,2.5,1.1,2.5,2.5v44.4     C301.2,864.2,300.1,865.3,298.7,865.3z"/>
		</g>
		<g>
			<path d="M320.9,843.1L320.9,843.1l-44.4,0c-1.4,0-2.5-1.1-2.5-2.5c0-1.4,1.1-2.5,2.5-2.5l0,0l44.4,0c1.4,0,2.5,1.1,2.5,2.5     C323.4,842,322.3,843.1,320.9,843.1z"/>
		</g>
	</g>
	<g>
		<rect x="651.2" y="618.2" fill="#64ADDB" width="201.3" height="45.8"/>
	</g>
	<g>
		<rect x="651.2" y="710.2" fill="#64ADDB" width="201.3" height="45.8"/>
	</g>
	<g>
		<path d="M863.6,620.7H633.7c-1.4,0-2.5-1.1-2.5-2.5s1.1-2.5,2.5-2.5h229.9c1.4,0,2.5,1.1,2.5,2.5S865,620.7,863.6,620.7z"/>
	</g>
	<g>
		<path d="M863.6,712.7H633.7c-1.4,0-2.5-1.1-2.5-2.5c0-1.4,1.1-2.5,2.5-2.5h229.9c1.4,0,2.5,1.1,2.5,2.5    C866.1,711.6,865,712.7,863.6,712.7z"/>
	</g>
</g>
</svg>
